<svg width="36" height="36" xmlns="http://www.w3.org/2000/svg"><path style="-inkscape-stroke:none" d="M6.5 5A5.51 5.51 0 0 0 1 10.5v16C1 29.53 3.47 32 6.5 32h16c3.03 0 5.5-2.47 5.5-5.5V22h-2v4.5a3.47 3.47 0 0 1-3.5 3.5h-16A3.47 3.47 0 0 1 3 26.5v-16A3.47 3.47 0 0 1 6.5 7H24V5Z" color="#000" fill="#2c3e5f" paint-order="stroke fill markers"/><path d="M13.555 20.848 13 26.353l5.505-.556L32.11 12.191l-4.95-4.95ZM27.87 6.534l4.95 4.95 1.217-1.218a2.771 2.771 0 0 0 0-3.928l-1.022-1.022a2.771 2.771 0 0 0-3.927 0zM14.08 21.737l2.828-2.828 3.536 3.535-2.828 2.829-.304-3.232zm4.95-4.95 7.07-7.07.708.706-7.071 7.071z" fill="#2c3e5f"/></svg>